<?xml version="1.0" encoding="utf-8"?>
<!-- Generator: Adobe Illustrator 26.0.1, SVG Export Plug-In . SVG Version: 6.00 Build 0)  -->
<svg version="1.1" id="Layer_1" xmlns="http://www.w3.org/2000/svg" xmlns:xlink="http://www.w3.org/1999/xlink" x="0px" y="0px"
	 viewBox="0 0 1000 1000" enable-background="new 0 0 1000 1000" xml:space="preserve">
<g>
	<g>
		<path fill="#DF3826" stroke="#FFFFFF" stroke-width="3.8407" stroke-miterlimit="10" d="M375.29,357.18
			c28.93-37.18,74.13-61.09,124.9-61.09c50.77,0,95.97,23.91,124.93,61.09c-48.01,19.6-90.39,51.19-124.9,86.13
			C464.43,407.79,423.02,376.39,375.29,357.18z"/>
		<path fill="#0E2032" d="M770.62,337.1v18.25c0,3.84-2.99,7.01-6.84,7.31c-35.3,2.7-68.87,10.04-100.35,21.36
			c-52.32,18.75-99,48.56-138.7,86.56c-8.66,8.27-16.7,16.96-24.53,26.03c-6.51-7.54-13.67-14.88-20.8-21.89
			c-39.44-38.94-88.67-69.63-143.16-89.14c-31.75-11.41-65.32-19.01-99.74-22.27c-3.79-0.38-6.69-3.49-6.69-7.31v-18.9
			c0-4.08,3.35-7.42,7.42-7.37c42.08,0.82,82.39,8.57,119.84,22.12c55.19,19.95,104.14,52.55,143.16,94.19
			c39-41.64,87.94-74.24,143.13-94.19c37.47-13.56,77.79-21.3,119.84-22.12C767.27,329.68,770.62,333.02,770.62,337.1z"/>
		<g>
			<g>
				<path fill="#0E2032" d="M500.3,523.54l-2.4-3.09c-43.26-55.79-100.96-98.2-166.87-122.64c-31.99-11.87-65.56-19.29-99.78-22.07
					c-1.61-0.13-2.82-1.55-2.69-3.16c0.13-1.62,1.53-2.85,3.16-2.69c34.75,2.82,68.84,10.36,101.34,22.42
					c65.76,24.39,123.47,66.38,167.14,121.58c43.7-55.24,101.39-97.22,167.09-121.58c32.42-12.01,66.38-19.54,100.95-22.39
					c1.66-0.14,3.03,1.07,3.17,2.68c0.13,1.61-1.07,3.03-2.68,3.16c-34.04,2.8-67.48,10.22-99.4,22.04
					C603.6,422.19,546,464.48,502.77,520.12L500.3,523.54z"/>
			</g>
		</g>
		<g>
			<g>
				<g>
					<path fill="#DF3826" d="M500.09,290.02c-0.71,0-1.28-0.57-1.28-1.28v-43.09c0-0.71,0.57-1.28,1.28-1.28s1.28,0.57,1.28,1.28
						v43.09C501.37,289.45,500.8,290.02,500.09,290.02z"/>
				</g>
				<g>
					<path fill="#DF3826" d="M485.59,290.64c-0.65,0-1.21-0.5-1.27-1.16l-2.61-27.28c-0.07-0.7,0.45-1.33,1.15-1.4
						c0.74-0.09,1.33,0.45,1.4,1.15l2.61,27.28c0.07,0.7-0.45,1.33-1.15,1.4C485.67,290.64,485.63,290.64,485.59,290.64z"/>
				</g>
				<g>
					<path fill="#DF3826" d="M471.2,292.53c-0.63,0-1.18-0.47-1.27-1.11l-5.79-42.71c-0.1-0.7,0.4-1.35,1.1-1.44
						c0.7-0.09,1.35,0.4,1.44,1.1l5.79,42.71c0.1,0.7-0.4,1.35-1.1,1.44C471.32,292.53,471.26,292.53,471.2,292.53z"/>
				</g>
				<g>
					<path fill="#DF3826" d="M457.04,295.66c-0.6,0-1.14-0.42-1.26-1.03l-5.19-26.38c-0.14-0.69,0.32-1.37,1.01-1.5
						c0.7-0.13,1.37,0.32,1.5,1.01l5.19,26.38c0.14,0.69-0.32,1.37-1.01,1.5C457.2,295.66,457.12,295.66,457.04,295.66z"/>
				</g>
				<g>
					<path fill="#DF3826" d="M443.19,300.03c-0.54,0-1.04-0.34-1.22-0.88l-13.52-40.92c-0.22-0.67,0.14-1.4,0.81-1.62
						c0.67-0.23,1.39,0.14,1.62,0.81l13.52,40.92c0.22,0.67-0.14,1.4-0.81,1.62C443.46,300.01,443.33,300.03,443.19,300.03z"/>
				</g>
				<g>
					<path fill="#DF3826" d="M429.79,305.57c-0.5,0-0.98-0.3-1.18-0.79l-10.1-24.59c-0.27-0.65,0.04-1.4,0.7-1.67
						c0.65-0.27,1.4,0.04,1.67,0.7l10.1,24.59c0.27,0.65-0.04,1.4-0.7,1.67C430.12,305.54,429.95,305.57,429.79,305.57z"/>
				</g>
				<g>
					<path fill="#DF3826" d="M416.93,312.27c-0.45,0-0.89-0.24-1.12-0.66l-20.84-37.66c-0.34-0.62-0.12-1.4,0.5-1.74
						c0.62-0.34,1.4-0.12,1.74,0.5l20.84,37.66c0.34,0.62,0.12,1.4-0.5,1.74C417.35,312.22,417.14,312.27,416.93,312.27z"/>
				</g>
				<g>
					<path fill="#DF3826" d="M404.68,320.06c-0.41,0-0.82-0.2-1.07-0.57l-14.62-21.98c-0.39-0.59-0.23-1.38,0.36-1.78
						c0.59-0.39,1.38-0.23,1.78,0.36l14.62,21.98c0.39,0.59,0.23,1.38-0.36,1.78C405.17,319.99,404.92,320.06,404.68,320.06z"/>
				</g>
				<g>
					<path fill="#DF3826" d="M393.16,328.89c-0.37,0-0.73-0.16-0.99-0.46l-27.4-33.08c-0.45-0.54-0.38-1.35,0.17-1.8
						c0.54-0.45,1.35-0.38,1.8,0.17l27.4,33.08c0.45,0.54,0.38,1.35-0.17,1.8C393.74,328.79,393.45,328.89,393.16,328.89z"/>
				</g>
				<g>
					<path fill="#DF3826" d="M382.46,338.68c-0.33,0-0.66-0.13-0.91-0.38l-18.62-18.62c-0.5-0.5-0.5-1.31,0-1.81s1.31-0.5,1.81,0
						l18.62,18.62c0.5,0.5,0.5,1.31,0,1.81C383.12,338.56,382.79,338.68,382.46,338.68z"/>
				</g>
				<g>
					<path fill="#DF3826" d="M372.65,349.37c-0.29,0-0.58-0.1-0.82-0.3l-33.06-27.4c-0.55-0.45-0.62-1.26-0.17-1.8
						c0.45-0.54,1.26-0.62,1.8-0.17l33.06,27.4c0.55,0.45,0.62,1.26,0.17,1.8C373.39,349.22,373.02,349.37,372.65,349.37z"/>
				</g>
				<g>
					<path fill="#DF3826" d="M627.47,349.48c-0.37,0-0.73-0.16-0.99-0.46c-0.45-0.54-0.38-1.35,0.17-1.8l33.29-27.58
						c0.55-0.45,1.35-0.38,1.8,0.17c0.45,0.54,0.38,1.35-0.17,1.8l-33.29,27.58C628.05,349.38,627.76,349.48,627.47,349.48z"/>
				</g>
				<g>
					<path fill="#DF3826" d="M617.67,338.77c-0.33,0-0.66-0.13-0.91-0.38c-0.5-0.5-0.5-1.31,0-1.81l18.62-18.62
						c0.5-0.5,1.31-0.5,1.81,0c0.5,0.5,0.5,1.31,0,1.81l-18.62,18.62C618.33,338.65,618,338.77,617.67,338.77z"/>
				</g>
				<g>
					<path fill="#DF3826" d="M606.99,328.97c-0.31,0-0.61-0.11-0.85-0.33c-0.53-0.47-0.57-1.28-0.1-1.81l28.78-32.24
						c0.47-0.53,1.28-0.57,1.81-0.1c0.53,0.47,0.57,1.28,0.1,1.81l-28.78,32.24C607.69,328.82,607.34,328.97,606.99,328.97z"/>
				</g>
				<g>
					<path fill="#DF3826" d="M595.47,320.13c-0.28,0-0.56-0.09-0.79-0.27c-0.56-0.44-0.66-1.24-0.22-1.8l17.18-21.98
						c0.44-0.56,1.24-0.65,1.8-0.22c0.56,0.44,0.66,1.24,0.22,1.8l-17.18,21.98C596.23,319.96,595.85,320.13,595.47,320.13z"/>
				</g>
				<g>
					<path fill="#DF3826" d="M583.23,312.32c-0.23,0-0.46-0.06-0.67-0.19c-0.6-0.37-0.79-1.16-0.43-1.76l22.51-36.9
						c0.37-0.61,1.15-0.79,1.76-0.43c0.6,0.37,0.79,1.16,0.43,1.76l-22.51,36.9C584.08,312.11,583.66,312.32,583.23,312.32z"/>
				</g>
				<g>
					<path fill="#DF3826" d="M570.37,305.62c-0.2,0-0.4-0.04-0.59-0.14c-0.63-0.32-0.88-1.1-0.55-1.72l12.66-24.59
						c0.33-0.63,1.1-0.88,1.72-0.55c0.63,0.32,0.88,1.1,0.55,1.72l-12.66,24.59C571.28,305.37,570.83,305.62,570.37,305.62z"/>
				</g>
				<g>
					<path fill="#DF3826" d="M556.96,300.06c-0.15,0-0.31-0.03-0.46-0.09c-0.66-0.25-0.99-0.99-0.74-1.65l15.47-40.35
						c0.25-0.66,1-0.99,1.65-0.74c0.66,0.25,0.99,0.99,0.74,1.65l-15.47,40.35C557.96,299.75,557.47,300.06,556.96,300.06z"/>
				</g>
				<g>
					<path fill="#DF3826" d="M543.13,295.7c-0.12,0-0.24-0.02-0.36-0.05c-0.68-0.2-1.07-0.91-0.87-1.59l7.75-26.38
						c0.2-0.68,0.91-1.07,1.59-0.87c0.68,0.2,1.07,0.91,0.87,1.59l-7.75,26.38C544.2,295.34,543.69,295.7,543.13,295.7z"/>
				</g>
				<g>
					<path fill="#DF3826" d="M528.97,292.56c-0.08,0-0.16-0.01-0.24-0.02c-0.7-0.13-1.16-0.8-1.03-1.49l7.86-42.43
						c0.13-0.7,0.8-1.16,1.49-1.03c0.7,0.13,1.16,0.8,1.03,1.49l-7.86,42.43C530.12,292.13,529.58,292.56,528.97,292.56z"/>
				</g>
				<g>
					<path fill="#DF3826" d="M514.58,290.65c-0.04,0-0.08,0-0.12-0.01c-0.7-0.07-1.22-0.69-1.15-1.4l2.61-27.28
						c0.07-0.71,0.7-1.23,1.4-1.15c0.7,0.07,1.22,0.69,1.15,1.4l-2.61,27.28C515.79,290.16,515.24,290.65,514.58,290.65z"/>
				</g>
			</g>
		</g>
	</g>
	<g>
		
			<text transform="matrix(1 0 0 1 78.7898 717.6647)" fill="#DF3826" font-family="'Poppins-Regular'" font-size="66.3752px" letter-spacing="3">INTERNATIONAL SCHOOL</text>
		<g>
			<g>
				
					<text transform="matrix(1 0 0 1 306.1858 647.2926)" fill="#0E2032" font-family="'Poppins-ExtraBold'" font-size="66.3752px" letter-spacing="6">THE HOPE</text>
			</g>
			<rect x="84.1" y="599.77" fill="#0E2032" width="200.84" height="53.25"/>
			<rect x="687.42" y="599.77" fill="#0E2032" width="213.21" height="53.25"/>
		</g>
	</g>
</g>
</svg>
